<svg width="285" height="285" viewBox="0 0 285 285" fill="none" xmlns="http://www.w3.org/2000/svg">
<path fill-rule="evenodd" clip-rule="evenodd" d="M142.74 186.38C167.33 186.38 187.19 166.53 187.19 141.93C187.19 117.33 167.34 97.48 142.74 97.48C118.14 97.48 98.29 117.33 98.29 141.93C98.29 166.53 118.14 186.38 142.74 186.38Z" fill="#003161"/>
<path fill-rule="evenodd" clip-rule="evenodd" d="M46.4396 10.37C35.7696 3.85 23.3196 0.3 9.98957 0H0.80957V80C0.80957 129.78 0.80957 181.63 0.80957 97.78C0.80957 113.48 4.36957 128.6 10.5896 142.23C22.4396 168.3 44.6696 188.75 71.9296 198.23C74.8896 199.12 77.8596 200.3 80.8196 200.9C89.4096 202.97 98.2996 204.16 107.49 204.16H142.45C137.41 204.16 132.38 203.57 127.63 202.38C100.96 195.57 80.8096 171.27 80.8096 142.53V71.41C80.8096 58.97 77.5496 47.11 71.9196 37.04C65.6996 25.78 57.0996 16.6 46.4396 10.37Z" fill="url(#paint0_linear_265_9)"/>
<path fill-rule="evenodd" clip-rule="evenodd" d="M239.029 273.79C249.699 280.31 262.139 283.86 275.479 284.16H284.669V204.16C284.669 154.38 284.669 102.53 284.669 186.38C284.669 170.68 281.109 155.56 274.889 141.93C263.039 115.86 240.809 95.41 213.549 85.93C210.589 85.04 207.619 83.86 204.659 83.26C196.069 81.19 187.179 80 177.989 80H143.029C148.069 80 153.099 80.59 157.849 81.78C184.519 88.59 204.669 112.89 204.669 141.63V212.74C204.669 225.18 207.929 237.04 213.559 247.11C219.779 258.37 228.669 267.26 239.039 273.78L239.029 273.79Z" fill="url(#paint1_linear_265_9)"/>
<path fill-rule="evenodd" clip-rule="evenodd" d="M274.59 45.63C281.11 34.96 284.66 22.52 284.96 9.18V0H204.96C155.18 0 103.33 0 187.18 0C171.48 0 156.36 3.56 142.73 9.78C116.66 21.63 96.2098 43.86 86.7298 71.12C85.8398 74.08 84.6598 77.05 84.0598 80.01C81.9898 88.6 80.7998 97.49 80.7998 106.68V141.64C80.7998 136.6 81.3898 131.57 82.5798 126.82C89.3998 100.15 113.69 80 142.43 80H213.54C225.98 80 237.84 76.74 247.91 71.11C259.17 64.89 268.06 56.29 274.58 45.63H274.59Z" fill="url(#paint2_linear_265_9)"/>
<path fill-rule="evenodd" clip-rule="evenodd" d="M11.1796 238.53C4.65957 249.2 1.10957 261.64 0.80957 274.98V284.17H80.8096C130.59 284.17 182.44 284.17 98.5896 284.17C114.29 284.17 129.41 280.61 143.04 274.39C169.11 262.54 189.56 240.31 199.04 213.05C199.93 210.09 201.11 207.12 201.71 204.16C203.78 195.57 204.97 186.68 204.97 177.49V142.53C204.97 147.57 204.38 152.6 203.19 157.35C196.37 184.02 172.08 204.17 143.34 204.17H72.2196C59.7796 204.17 47.9196 207.43 37.8496 213.06C26.5896 218.99 17.4096 227.88 11.1796 238.54V238.53Z" fill="url(#paint3_linear_265_9)"/>
<defs>
<linearGradient id="paint0_linear_265_9" x1="-41.3555" y1="108.792" x2="36.3018" y2="108.791" gradientUnits="userSpaceOnUse">
<stop stop-color="#01284F"/>
<stop offset="1" stop-color="#003466"/>
</linearGradient>
<linearGradient id="paint1_linear_265_9" x1="234.633" y1="186.604" x2="156.976" y2="186.604" gradientUnits="userSpaceOnUse">
<stop stop-color="#01284F"/>
<stop offset="1" stop-color="#003466"/>
</linearGradient>
<linearGradient id="paint2_linear_265_9" x1="135.68" y1="9.5819" x2="135.68" y2="87.2378" gradientUnits="userSpaceOnUse">
<stop stop-color="#026E34"/>
<stop offset="1" stop-color="#079C4A"/>
</linearGradient>
<linearGradient id="paint3_linear_265_9" x1="57.8989" y1="285.708" x2="57.8989" y2="209.862" gradientUnits="userSpaceOnUse">
<stop stop-color="#026E34"/>
<stop offset="1" stop-color="#079C4A"/>
</linearGradient>
</defs>
</svg>
